<svg xmlns="http://www.w3.org/2000/svg" width="1024" height="1024" viewBox="0 0 1024 1024">
  <defs>
    <radialGradient id="background" cx="50%" cy="42%" r="82%">
      <stop offset="0%" stop-color="#1728B7"/>
      <stop offset="58%" stop-color="#090F75"/>
      <stop offset="100%" stop-color="#03032B"/>
    </radialGradient>
    <linearGradient id="corner" x1="0" y1="0" x2="1" y2="1">
      <stop offset="0%" stop-color="#F0FFFF"/>
      <stop offset="55%" stop-color="#38F1FF"/>
      <stop offset="100%" stop-color="#B89AFF"/>
    </linearGradient>
  </defs>
  <rect width="1024" height="1024" fill="url(#background)"/>
  <g fill="url(#corner)">
    <path d="M160 196c0-40 32-72 72-72h244v96H256v220h-96V196Z"/>
    <path d="M548 124h244c40 0 72 32 72 72v244h-96V220H548v-96Z"/>
    <path d="M160 584h96v220h220v96H232c-40 0-72-32-72-72V584Z"/>
    <path d="M768 584h96v244c0 40-32 72-72 72H548v-96h220V584Z"/>
  </g>
  <path fill="#F5F7FF" d="M248 172h528v160H592v520H432V332H248V172Z"/>
</svg>
